<mxfile host="65bd71144e">
    <diagram id="C5RBs43oDa-KdzZeNtuy" name="Page-1">
        <mxGraphModel dx="1410" dy="799" grid="1" gridSize="10" guides="1" tooltips="1" connect="1" arrows="1" fold="1" page="1" pageScale="1" pageWidth="827" pageHeight="1169" math="0" shadow="0">
            <root>
                <mxCell id="WIyWlLk6GJQsqaUBKTNV-0"/>
                <mxCell id="WIyWlLk6GJQsqaUBKTNV-1" parent="WIyWlLk6GJQsqaUBKTNV-0"/>
                <mxCell id="VFtjQShfL0-Lv15Fn_P_-2" value="Test Creator" style="swimlane;fontStyle=1;align=center;verticalAlign=top;childLayout=stackLayout;horizontal=1;startSize=26;horizontalStack=0;resizeParent=1;resizeParentMax=0;resizeLast=0;collapsible=1;marginBottom=0;" parent="WIyWlLk6GJQsqaUBKTNV-1" vertex="1">
                    <mxGeometry x="60" y="120" width="190" height="110" as="geometry"/>
                </mxCell>
                <mxCell id="VFtjQShfL0-Lv15Fn_P_-3" value="_all: ArrayList&lt;Questions&gt;&#10;_outputFile: File" style="text;strokeColor=none;fillColor=none;align=left;verticalAlign=top;spacingLeft=4;spacingRight=4;overflow=hidden;rotatable=0;points=[[0,0.5],[1,0.5]];portConstraint=eastwest;" parent="VFtjQShfL0-Lv15Fn_P_-2" vertex="1">
                    <mxGeometry y="26" width="190" height="34" as="geometry"/>
                </mxCell>
                <mxCell id="VFtjQShfL0-Lv15Fn_P_-4" value="" style="line;strokeWidth=1;fillColor=none;align=left;verticalAlign=middle;spacingTop=-1;spacingLeft=3;spacingRight=3;rotatable=0;labelPosition=right;points=[];portConstraint=eastwest;" parent="VFtjQShfL0-Lv15Fn_P_-2" vertex="1">
                    <mxGeometry y="60" width="190" height="8" as="geometry"/>
                </mxCell>
                <mxCell id="VFtjQShfL0-Lv15Fn_P_-5" value="+ TestCreator(ArrayList&lt;Q&gt;, File)&#10;+ createTest(): File" style="text;strokeColor=none;fillColor=none;align=left;verticalAlign=top;spacingLeft=4;spacingRight=4;overflow=hidden;rotatable=0;points=[[0,0.5],[1,0.5]];portConstraint=eastwest;" parent="VFtjQShfL0-Lv15Fn_P_-2" vertex="1">
                    <mxGeometry y="68" width="190" height="42" as="geometry"/>
                </mxCell>
                <mxCell id="VFtjQShfL0-Lv15Fn_P_-6" value="Format Reader" style="swimlane;fontStyle=1;align=center;verticalAlign=top;childLayout=stackLayout;horizontal=1;startSize=26;horizontalStack=0;resizeParent=1;resizeParentMax=0;resizeLast=0;collapsible=1;marginBottom=0;" parent="WIyWlLk6GJQsqaUBKTNV-1" vertex="1">
                    <mxGeometry x="330" y="120" width="190" height="120" as="geometry"/>
                </mxCell>
                <mxCell id="VFtjQShfL0-Lv15Fn_P_-7" value="_f: File&#10;_Questions: ArrayList&lt;Questions&gt;" style="text;strokeColor=none;fillColor=none;align=left;verticalAlign=top;spacingLeft=4;spacingRight=4;overflow=hidden;rotatable=0;points=[[0,0.5],[1,0.5]];portConstraint=eastwest;" parent="VFtjQShfL0-Lv15Fn_P_-6" vertex="1">
                    <mxGeometry y="26" width="190" height="34" as="geometry"/>
                </mxCell>
                <mxCell id="VFtjQShfL0-Lv15Fn_P_-8" value="" style="line;strokeWidth=1;fillColor=none;align=left;verticalAlign=middle;spacingTop=-1;spacingLeft=3;spacingRight=3;rotatable=0;labelPosition=right;points=[];portConstraint=eastwest;" parent="VFtjQShfL0-Lv15Fn_P_-6" vertex="1">
                    <mxGeometry y="60" width="190" height="8" as="geometry"/>
                </mxCell>
                <mxCell id="VFtjQShfL0-Lv15Fn_P_-9" value="+ FormatReader(file)&#10;+ readnext(file): Question&#10;+ returnQuestions(): ArrayList&lt;Q&gt;" style="text;strokeColor=none;fillColor=none;align=left;verticalAlign=top;spacingLeft=4;spacingRight=4;overflow=hidden;rotatable=0;points=[[0,0.5],[1,0.5]];portConstraint=eastwest;" parent="VFtjQShfL0-Lv15Fn_P_-6" vertex="1">
                    <mxGeometry y="68" width="190" height="52" as="geometry"/>
                </mxCell>
                <mxCell id="VFtjQShfL0-Lv15Fn_P_-21" value="Driver" style="swimlane;fontStyle=1;align=center;verticalAlign=top;childLayout=stackLayout;horizontal=1;startSize=26;horizontalStack=0;resizeParent=1;resizeParentMax=0;resizeLast=0;collapsible=1;marginBottom=0;" parent="WIyWlLk6GJQsqaUBKTNV-1" vertex="1">
                    <mxGeometry x="80" y="370" width="160" height="108" as="geometry"/>
                </mxCell>
                <mxCell id="VFtjQShfL0-Lv15Fn_P_-22" value="fr: FormatReader&#10;tc: TestCreator&#10;inputfile: file&#10;outfile: file&#10;Scheme: string" style="text;strokeColor=none;fillColor=none;align=left;verticalAlign=top;spacingLeft=4;spacingRight=4;overflow=hidden;rotatable=0;points=[[0,0.5],[1,0.5]];portConstraint=eastwest;" parent="VFtjQShfL0-Lv15Fn_P_-21" vertex="1">
                    <mxGeometry y="26" width="160" height="74" as="geometry"/>
                </mxCell>
                <mxCell id="VFtjQShfL0-Lv15Fn_P_-23" value="" style="line;strokeWidth=1;fillColor=none;align=left;verticalAlign=middle;spacingTop=-1;spacingLeft=3;spacingRight=3;rotatable=0;labelPosition=right;points=[];portConstraint=eastwest;" parent="VFtjQShfL0-Lv15Fn_P_-21" vertex="1">
                    <mxGeometry y="100" width="160" height="8" as="geometry"/>
                </mxCell>
                <mxCell id="VFtjQShfL0-Lv15Fn_P_-30" value="Question" style="swimlane;fontStyle=1;align=center;verticalAlign=top;childLayout=stackLayout;horizontal=1;startSize=26;horizontalStack=0;resizeParent=1;resizeParentMax=0;resizeLast=0;collapsible=1;marginBottom=0;" parent="WIyWlLk6GJQsqaUBKTNV-1" vertex="1">
                    <mxGeometry x="600" y="60" width="210" height="120" as="geometry"/>
                </mxCell>
                <mxCell id="VFtjQShfL0-Lv15Fn_P_-31" value="_Question: Obj&#10;_Answer: Obj" style="text;strokeColor=none;fillColor=none;align=left;verticalAlign=top;spacingLeft=4;spacingRight=4;overflow=hidden;rotatable=0;points=[[0,0.5],[1,0.5]];portConstraint=eastwest;" parent="VFtjQShfL0-Lv15Fn_P_-30" vertex="1">
                    <mxGeometry y="26" width="210" height="34" as="geometry"/>
                </mxCell>
                <mxCell id="VFtjQShfL0-Lv15Fn_P_-32" value="" style="line;strokeWidth=1;fillColor=none;align=left;verticalAlign=middle;spacingTop=-1;spacingLeft=3;spacingRight=3;rotatable=0;labelPosition=right;points=[];portConstraint=eastwest;" parent="VFtjQShfL0-Lv15Fn_P_-30" vertex="1">
                    <mxGeometry y="60" width="210" height="8" as="geometry"/>
                </mxCell>
                <mxCell id="VFtjQShfL0-Lv15Fn_P_-33" value="+ Question(Question, Answer)&#10;+ returnQuestion(): Obj&#10;+ returnAnswer(): Obj" style="text;strokeColor=none;fillColor=none;align=left;verticalAlign=top;spacingLeft=4;spacingRight=4;overflow=hidden;rotatable=0;points=[[0,0.5],[1,0.5]];portConstraint=eastwest;" parent="VFtjQShfL0-Lv15Fn_P_-30" vertex="1">
                    <mxGeometry y="68" width="210" height="52" as="geometry"/>
                </mxCell>
                <mxCell id="VFtjQShfL0-Lv15Fn_P_-35" value="" style="endArrow=open;html=1;endSize=12;startArrow=diamondThin;startSize=14;startFill=0;edgeStyle=orthogonalEdgeStyle;align=left;verticalAlign=bottom;rounded=0;entryX=1;entryY=0.5;entryDx=0;entryDy=0;exitX=0.01;exitY=0.923;exitDx=0;exitDy=0;exitPerimeter=0;" parent="WIyWlLk6GJQsqaUBKTNV-1" source="VFtjQShfL0-Lv15Fn_P_-31" target="VFtjQShfL0-Lv15Fn_P_-7" edge="1">
                    <mxGeometry x="-0.5315" y="20" relative="1" as="geometry">
                        <mxPoint x="605" y="130.01999999999998" as="sourcePoint"/>
                        <mxPoint x="510" y="130" as="targetPoint"/>
                        <mxPoint as="offset"/>
                    </mxGeometry>
                </mxCell>
                <mxCell id="VFtjQShfL0-Lv15Fn_P_-48" style="edgeStyle=orthogonalEdgeStyle;rounded=0;orthogonalLoop=1;jettySize=auto;html=1;exitX=0.5;exitY=0;exitDx=0;exitDy=0;entryX=0.5;entryY=1;entryDx=0;entryDy=0;entryPerimeter=0;" parent="WIyWlLk6GJQsqaUBKTNV-1" source="VFtjQShfL0-Lv15Fn_P_-41" target="VFtjQShfL0-Lv15Fn_P_-9" edge="1">
                    <mxGeometry relative="1" as="geometry"/>
                </mxCell>
                <mxCell id="VFtjQShfL0-Lv15Fn_P_-41" value="String Reader" style="swimlane;fontStyle=1;align=center;verticalAlign=top;childLayout=stackLayout;horizontal=1;startSize=26;horizontalStack=0;resizeParent=1;resizeParentMax=0;resizeLast=0;collapsible=1;marginBottom=0;" parent="WIyWlLk6GJQsqaUBKTNV-1" vertex="1">
                    <mxGeometry x="480" y="280" width="190" height="150" as="geometry"/>
                </mxCell>
                <mxCell id="VFtjQShfL0-Lv15Fn_P_-42" value="_f: File&#10;_Questions: ArrayList&lt;Questions&gt;&#10;_QAdelimiter: char&#10;_QAdelimiter: char" style="text;strokeColor=none;fillColor=none;align=left;verticalAlign=top;spacingLeft=4;spacingRight=4;overflow=hidden;rotatable=0;points=[[0,0.5],[1,0.5]];portConstraint=eastwest;" parent="VFtjQShfL0-Lv15Fn_P_-41" vertex="1">
                    <mxGeometry y="26" width="190" height="64" as="geometry"/>
                </mxCell>
                <mxCell id="VFtjQShfL0-Lv15Fn_P_-43" value="" style="line;strokeWidth=1;fillColor=none;align=left;verticalAlign=middle;spacingTop=-1;spacingLeft=3;spacingRight=3;rotatable=0;labelPosition=right;points=[];portConstraint=eastwest;" parent="VFtjQShfL0-Lv15Fn_P_-41" vertex="1">
                    <mxGeometry y="90" width="190" height="8" as="geometry"/>
                </mxCell>
                <mxCell id="VFtjQShfL0-Lv15Fn_P_-44" value="+ StringReader(file, char, char)&#10;+ readString(file): Question&#10;+returnQuestions(): ArrayList&lt;Q&gt;" style="text;strokeColor=none;fillColor=none;align=left;verticalAlign=top;spacingLeft=4;spacingRight=4;overflow=hidden;rotatable=0;points=[[0,0.5],[1,0.5]];portConstraint=eastwest;" parent="VFtjQShfL0-Lv15Fn_P_-41" vertex="1">
                    <mxGeometry y="98" width="190" height="52" as="geometry"/>
                </mxCell>
                <mxCell id="VFtjQShfL0-Lv15Fn_P_-51" value="" style="endArrow=open;html=1;endSize=12;startArrow=diamondThin;startSize=14;startFill=0;edgeStyle=orthogonalEdgeStyle;align=left;verticalAlign=bottom;rounded=0;entryX=0.5;entryY=0;entryDx=0;entryDy=0;exitX=0.389;exitY=0.976;exitDx=0;exitDy=0;exitPerimeter=0;" parent="WIyWlLk6GJQsqaUBKTNV-1" source="VFtjQShfL0-Lv15Fn_P_-5" target="VFtjQShfL0-Lv15Fn_P_-21" edge="1">
                    <mxGeometry x="0.4375" y="74" relative="1" as="geometry">
                        <mxPoint x="90" y="280" as="sourcePoint"/>
                        <mxPoint x="250" y="280" as="targetPoint"/>
                        <mxPoint x="-4" y="-25" as="offset"/>
                    </mxGeometry>
                </mxCell>
                <mxCell id="VFtjQShfL0-Lv15Fn_P_-52" value="" style="endArrow=open;html=1;endSize=12;startArrow=diamondThin;startSize=14;startFill=0;edgeStyle=orthogonalEdgeStyle;align=left;verticalAlign=bottom;rounded=0;entryX=1;entryY=0.102;entryDx=0;entryDy=0;entryPerimeter=0;exitX=-0.005;exitY=0.15;exitDx=0;exitDy=0;exitPerimeter=0;" parent="WIyWlLk6GJQsqaUBKTNV-1" source="VFtjQShfL0-Lv15Fn_P_-6" target="VFtjQShfL0-Lv15Fn_P_-21" edge="1">
                    <mxGeometry x="-1" y="54" relative="1" as="geometry">
                        <mxPoint x="300" y="540" as="sourcePoint"/>
                        <mxPoint x="460" y="540" as="targetPoint"/>
                        <mxPoint x="-20" y="4" as="offset"/>
                    </mxGeometry>
                </mxCell>
                <mxCell id="VFtjQShfL0-Lv15Fn_P_-53" value="&lt;p&gt;&lt;/p&gt;&lt;p&gt;B: What might change in the future? Added? or Modified?&lt;/p&gt;&lt;p&gt;&lt;b&gt;In the future, there could be new format readers and different ways to read in files. The test creator class might need to be modified&lt;/b&gt;&lt;/p&gt;&lt;p&gt;&lt;b&gt;because it would not work with new readers.&amp;nbsp;&lt;/b&gt;&lt;/p&gt;" style="text;html=1;align=left;verticalAlign=middle;resizable=0;points=[];autosize=1;strokeColor=none;fillColor=none;" parent="WIyWlLk6GJQsqaUBKTNV-1" vertex="1">
                    <mxGeometry x="34" y="585" width="760" height="100" as="geometry"/>
                </mxCell>
            </root>
        </mxGraphModel>
    </diagram>
</mxfile>